# xmcd
#
# Track frame offsets:
#	150
#	15826
#	34766
#	65333
#	76876
#	97149
#	110585
#	125139
#	147556
#	164677
#	183755
#
# Disc length: 2881 seconds
#
# Revision: 0
# Processed by: cddbd v1.5.1PL0 Copyright (c) Steve Scherf et al.
# Submitted via: dBpowerAMP V4.0
#
DISCID=940b3f0b
DTITLE=Hired Hands - Hands of Time
DYEAR=2001
DGENRE=Country
TTITLE0=Burning up the night
TTITLE1=Deeper well
TTITLE2=Me and the eagle
TTITLE3=Mother natures son
TTITLE4=Old girl
TTITLE5=She just wants to dance
TTITLE6=Bitter creek blue northern
TTITLE7=Keeping time
TTITLE8=Her spirit moves me
TTITLE9=Suicide at the wishing well
TTITLE10=Hands of time
EXTD=
EXTT0=
EXTT1=
EXTT2=
EXTT3=
EXTT4=
EXTT5=
EXTT6=
EXTT7=
EXTT8=
EXTT9=
EXTT10=
PLAYORDER=
